<svg width="251" height="51" viewBox="0 0 251 51" fill="none" xmlns="http://www.w3.org/2000/svg">
<circle cx="6" cy="9" r="6" fill="#519493"/>
<circle cx="6" cy="41" r="6" fill="#F6A83D"/>
<circle cx="96" cy="9" r="6" fill="#D9D9D9"/>
<circle cx="96" cy="41" r="6" fill="#787878"/>
<path d="M22.1634 4.61364V3.36364H30.8906V4.61364H27.2315V15H25.8224V4.61364H22.1634ZM35.277 15.1818C34.4361 15.1818 33.7107 14.9962 33.1009 14.625C32.4948 14.25 32.027 13.7273 31.6974 13.0568C31.3717 12.3826 31.2088 11.5985 31.2088 10.7045C31.2088 9.81061 31.3717 9.02273 31.6974 8.34091C32.027 7.6553 32.4853 7.12121 33.0724 6.73864C33.6634 6.35227 34.3527 6.15909 35.1406 6.15909C35.5952 6.15909 36.044 6.23485 36.4872 6.38636C36.9304 6.53788 37.3338 6.78409 37.6974 7.125C38.0611 7.46212 38.3509 7.90909 38.5668 8.46591C38.7827 9.02273 38.8906 9.70833 38.8906 10.5227V11.0909H32.1634V9.93182H37.527C37.527 9.43939 37.4285 9 37.2315 8.61364C37.0384 8.22727 36.7618 7.92235 36.402 7.69886C36.0459 7.47538 35.6255 7.36364 35.1406 7.36364C34.6065 7.36364 34.1444 7.49621 33.7543 7.76136C33.3679 8.02273 33.0705 8.36364 32.8622 8.78409C32.6539 9.20455 32.5497 9.6553 32.5497 10.1364V10.9091C32.5497 11.5682 32.6634 12.1269 32.8906 12.5852C33.1217 13.0398 33.4418 13.3864 33.8509 13.625C34.2599 13.8598 34.7353 13.9773 35.277 13.9773C35.6293 13.9773 35.9474 13.928 36.2315 13.8295C36.5194 13.7273 36.7675 13.5758 36.9759 13.375C37.1842 13.1705 37.3452 12.9167 37.4588 12.6136L38.7543 12.9773C38.6179 13.4167 38.3887 13.803 38.0668 14.1364C37.7448 14.4659 37.3471 14.7235 36.8736 14.9091C36.4001 15.0909 35.8679 15.1818 35.277 15.1818ZM40.9304 15V6.27273H42.2259V7.59091H42.3168C42.4759 7.15909 42.7637 6.80871 43.1804 6.53977C43.5971 6.27083 44.0668 6.13636 44.5895 6.13636C44.688 6.13636 44.8111 6.13826 44.9588 6.14205C45.1065 6.14583 45.2183 6.15152 45.294 6.15909V7.52273C45.2486 7.51136 45.1444 7.49432 44.9815 7.47159C44.8224 7.44508 44.6539 7.43182 44.4759 7.43182C44.0516 7.43182 43.6728 7.52083 43.3395 7.69886C43.0099 7.87311 42.7486 8.11553 42.5554 8.42614C42.366 8.73295 42.2713 9.08333 42.2713 9.47727V15H40.9304ZM46.8835 15V6.27273H48.2244V15H46.8835ZM47.5653 4.81818C47.304 4.81818 47.0786 4.72917 46.8892 4.55114C46.7036 4.37311 46.6108 4.15909 46.6108 3.90909C46.6108 3.65909 46.7036 3.44508 46.8892 3.26705C47.0786 3.08902 47.304 3 47.5653 3C47.8267 3 48.0502 3.08902 48.2358 3.26705C48.4252 3.44508 48.5199 3.65909 48.5199 3.90909C48.5199 4.15909 48.4252 4.37311 48.2358 4.55114C48.0502 4.72917 47.8267 4.81818 47.5653 4.81818ZM56.8622 8.22727L55.6577 8.56818C55.5819 8.36742 55.4702 8.17235 55.3224 7.98295C55.1785 7.78977 54.9815 7.63068 54.7315 7.50568C54.4815 7.38068 54.1615 7.31818 53.7713 7.31818C53.2372 7.31818 52.7921 7.44129 52.4361 7.6875C52.0838 7.92992 51.9077 8.23864 51.9077 8.61364C51.9077 8.94697 52.0289 9.21023 52.2713 9.40341C52.5137 9.59659 52.8925 9.75758 53.4077 9.88636L54.7031 10.2045C55.4834 10.3939 56.0649 10.6837 56.4474 11.0739C56.83 11.4602 57.0213 11.9583 57.0213 12.5682C57.0213 13.0682 56.8774 13.5152 56.5895 13.9091C56.3054 14.303 55.9077 14.6136 55.3963 14.8409C54.8849 15.0682 54.2902 15.1818 53.6122 15.1818C52.7221 15.1818 51.9853 14.9886 51.402 14.6023C50.8187 14.2159 50.4493 13.6515 50.294 12.9091L51.5668 12.5909C51.688 13.0606 51.9171 13.4129 52.2543 13.6477C52.5952 13.8826 53.0402 14 53.5895 14C54.2145 14 54.7107 13.8674 55.0781 13.6023C55.4493 13.3333 55.6349 13.0114 55.6349 12.6364C55.6349 12.3333 55.5289 12.0795 55.3168 11.875C55.1046 11.6667 54.7789 11.5114 54.3395 11.4091L52.8849 11.0682C52.0857 10.8788 51.4986 10.5852 51.1236 10.1875C50.7524 9.78598 50.5668 9.28409 50.5668 8.68182C50.5668 8.18939 50.705 7.75379 50.9815 7.375C51.2618 6.99621 51.6425 6.69886 52.1236 6.48295C52.6084 6.26705 53.1577 6.15909 53.7713 6.15909C54.6349 6.15909 55.313 6.34848 55.8054 6.72727C56.3016 7.10606 56.6539 7.60606 56.8622 8.22727ZM59.0398 15V6.27273H60.3807V15H59.0398ZM59.7216 4.81818C59.4602 4.81818 59.2348 4.72917 59.0455 4.55114C58.8598 4.37311 58.767 4.15909 58.767 3.90909C58.767 3.65909 58.8598 3.44508 59.0455 3.26705C59.2348 3.08902 59.4602 3 59.7216 3C59.983 3 60.2064 3.08902 60.392 3.26705C60.5814 3.44508 60.6761 3.65909 60.6761 3.90909C60.6761 4.15909 60.5814 4.37311 60.392 4.55114C60.2064 4.72917 59.983 4.81818 59.7216 4.81818Z" fill="black"/>
<path d="M22.7607 47V35.3636H26.6925C27.6016 35.3636 28.3478 35.5189 28.9311 35.8295C29.5144 36.1364 29.9463 36.5587 30.2266 37.0966C30.5069 37.6345 30.647 38.2462 30.647 38.9318C30.647 39.6174 30.5069 40.2254 30.2266 40.7557C29.9463 41.286 29.5163 41.7027 28.9368 42.0057C28.3572 42.3049 27.6167 42.4545 26.7152 42.4545H23.5334V41.1818H26.6697C27.291 41.1818 27.791 41.0909 28.1697 40.9091C28.5523 40.7273 28.8288 40.4697 28.9993 40.1364C29.1735 39.7992 29.2607 39.3977 29.2607 38.9318C29.2607 38.4659 29.1735 38.0587 28.9993 37.7102C28.825 37.3617 28.5466 37.0928 28.1641 36.9034C27.7815 36.7102 27.2758 36.6136 26.647 36.6136H24.1697V47H22.7607ZM28.2379 41.7727L31.1016 47H29.4652L26.647 41.7727H28.2379ZM35.3814 47.2045C34.8284 47.2045 34.3265 47.1004 33.8757 46.892C33.425 46.6799 33.067 46.375 32.8018 45.9773C32.5367 45.5758 32.4041 45.0909 32.4041 44.5227C32.4041 44.0227 32.5026 43.6174 32.6996 43.3068C32.8965 42.9924 33.1598 42.7462 33.4893 42.5682C33.8189 42.3902 34.1825 42.2576 34.5803 42.1705C34.9818 42.0795 35.3852 42.0076 35.7905 41.9545C36.3208 41.8864 36.7507 41.8352 37.0803 41.8011C37.4136 41.7633 37.656 41.7008 37.8075 41.6136C37.9628 41.5265 38.0405 41.375 38.0405 41.1591V41.1136C38.0405 40.553 37.8871 40.1174 37.5803 39.8068C37.2772 39.4962 36.817 39.3409 36.1996 39.3409C35.5594 39.3409 35.0575 39.4811 34.6939 39.7614C34.3303 40.0417 34.0746 40.3409 33.9268 40.6591L32.6541 40.2045C32.8814 39.6742 33.1844 39.2614 33.5632 38.9659C33.9458 38.6667 34.3625 38.4583 34.8132 38.3409C35.2678 38.2197 35.7147 38.1591 36.1541 38.1591C36.4344 38.1591 36.7564 38.1932 37.12 38.2614C37.4875 38.3258 37.8416 38.4602 38.1825 38.6648C38.5272 38.8693 38.8132 39.178 39.0405 39.5909C39.2678 40.0038 39.3814 40.5568 39.3814 41.25V47H38.0405V45.8182H37.9723C37.8814 46.0076 37.7299 46.2102 37.5178 46.4261C37.3056 46.642 37.0234 46.8258 36.6712 46.9773C36.3189 47.1288 35.889 47.2045 35.3814 47.2045ZM35.5859 46C36.1162 46 36.5632 45.8958 36.9268 45.6875C37.2943 45.4792 37.5708 45.2102 37.7564 44.8807C37.9458 44.5511 38.0405 44.2045 38.0405 43.8409V42.6136C37.9837 42.6818 37.8587 42.7443 37.6655 42.8011C37.4761 42.8542 37.2564 42.9015 37.0064 42.9432C36.7602 42.9811 36.5196 43.0152 36.2848 43.0455C36.0537 43.072 35.8662 43.0947 35.7223 43.1136C35.3738 43.1591 35.0481 43.233 34.745 43.3352C34.4458 43.4337 34.2034 43.5833 34.0178 43.7841C33.8359 43.9811 33.745 44.25 33.745 44.5909C33.745 45.0568 33.9174 45.4091 34.2621 45.6477C34.6106 45.8826 35.0518 46 35.5859 46ZM45.3516 50.4545C44.7038 50.4545 44.147 50.3712 43.6811 50.2045C43.2152 50.0417 42.8269 49.8258 42.5163 49.5568C42.2095 49.2917 41.9652 49.0076 41.7834 48.7045L42.8516 47.9545C42.9728 48.1136 43.1262 48.2955 43.3118 48.5C43.4974 48.7083 43.7512 48.8883 44.0732 49.0398C44.3989 49.1951 44.825 49.2727 45.3516 49.2727C46.0561 49.2727 46.6375 49.1023 47.0959 48.7614C47.5542 48.4205 47.7834 47.8864 47.7834 47.1591V45.3864H47.6697C47.5713 45.5455 47.4311 45.7424 47.2493 45.9773C47.0713 46.2083 46.8137 46.4148 46.4766 46.5966C46.1432 46.7746 45.6925 46.8636 45.1243 46.8636C44.4197 46.8636 43.7872 46.697 43.2266 46.3636C42.6697 46.0303 42.2285 45.5455 41.9027 44.9091C41.5807 44.2727 41.4197 43.5 41.4197 42.5909C41.4197 41.697 41.5769 40.9186 41.8913 40.2557C42.2057 39.589 42.6432 39.0739 43.2038 38.7102C43.7644 38.3428 44.4122 38.1591 45.147 38.1591C45.7152 38.1591 46.166 38.2538 46.4993 38.4432C46.8364 38.6288 47.094 38.8409 47.272 39.0795C47.4538 39.3144 47.594 39.5076 47.6925 39.6591H47.8288V38.2727H49.1243V47.25C49.1243 48 48.9538 48.6098 48.6129 49.0795C48.2758 49.553 47.8213 49.8996 47.2493 50.1193C46.6811 50.3428 46.0485 50.4545 45.3516 50.4545ZM45.3061 45.6591C45.844 45.6591 46.2985 45.536 46.6697 45.2898C47.041 45.0436 47.3232 44.6894 47.5163 44.2273C47.7095 43.7652 47.8061 43.2121 47.8061 42.5682C47.8061 41.9394 47.7114 41.3845 47.522 40.9034C47.3326 40.4223 47.0523 40.0455 46.6811 39.7727C46.3099 39.5 45.8516 39.3636 45.3061 39.3636C44.7379 39.3636 44.2644 39.5076 43.8857 39.7955C43.5107 40.0833 43.2285 40.4697 43.0391 40.9545C42.8535 41.4394 42.7607 41.9773 42.7607 42.5682C42.7607 43.1742 42.8554 43.7102 43.0447 44.1761C43.2379 44.6383 43.522 45.0019 43.897 45.267C44.2758 45.5284 44.7455 45.6591 45.3061 45.6591ZM57.0788 43.4318V38.2727H58.4197V47H57.0788V45.5227H56.9879C56.7834 45.9659 56.4652 46.3428 56.0334 46.6534C55.6016 46.9602 55.0561 47.1136 54.397 47.1136C53.8516 47.1136 53.3667 46.9943 52.9425 46.7557C52.5182 46.5133 52.1849 46.1496 51.9425 45.6648C51.7 45.1761 51.5788 44.5606 51.5788 43.8182V38.2727H52.9197V43.7273C52.9197 44.3636 53.0978 44.8712 53.4538 45.25C53.8137 45.6288 54.272 45.8182 54.8288 45.8182C55.1622 45.8182 55.5012 45.733 55.8459 45.5625C56.1944 45.392 56.486 45.1307 56.7209 44.7784C56.9595 44.4261 57.0788 43.9773 57.0788 43.4318Z" fill="black"/>
<path d="M112.831 15V3.36364H116.899C117.71 3.36364 118.378 3.50379 118.905 3.78409C119.431 4.06061 119.823 4.43371 120.081 4.90341C120.339 5.36932 120.467 5.88636 120.467 6.45455C120.467 6.95455 120.378 7.36742 120.2 7.69318C120.026 8.01894 119.795 8.27652 119.507 8.46591C119.223 8.6553 118.914 8.79545 118.581 8.88636V9C118.937 9.02273 119.295 9.14773 119.655 9.375C120.015 9.60227 120.316 9.92803 120.558 10.3523C120.801 10.7765 120.922 11.2955 120.922 11.9091C120.922 12.4924 120.789 13.017 120.524 13.483C120.259 13.9489 119.84 14.3182 119.268 14.5909C118.696 14.8636 117.952 15 117.036 15H112.831ZM114.24 13.75H117.036C117.956 13.75 118.609 13.572 118.996 13.2159C119.386 12.8561 119.581 12.4205 119.581 11.9091C119.581 11.5152 119.481 11.1515 119.28 10.8182C119.079 10.4811 118.793 10.2121 118.422 10.0114C118.051 9.80682 117.611 9.70455 117.104 9.70455H114.24V13.75ZM114.24 8.47727H116.854C117.278 8.47727 117.661 8.39394 118.001 8.22727C118.346 8.06061 118.619 7.82576 118.82 7.52273C119.024 7.2197 119.126 6.86364 119.126 6.45455C119.126 5.94318 118.948 5.50947 118.592 5.15341C118.236 4.79356 117.672 4.61364 116.899 4.61364H114.24V8.47727ZM126.714 15.1818C125.874 15.1818 125.148 14.9962 124.538 14.625C123.932 14.25 123.464 13.7273 123.135 13.0568C122.809 12.3826 122.646 11.5985 122.646 10.7045C122.646 9.81061 122.809 9.02273 123.135 8.34091C123.464 7.6553 123.923 7.12121 124.51 6.73864C125.101 6.35227 125.79 6.15909 126.578 6.15909C127.033 6.15909 127.482 6.23485 127.925 6.38636C128.368 6.53788 128.771 6.78409 129.135 7.125C129.499 7.46212 129.788 7.90909 130.004 8.46591C130.22 9.02273 130.328 9.70833 130.328 10.5227V11.0909H123.601V9.93182H128.964C128.964 9.43939 128.866 9 128.669 8.61364C128.476 8.22727 128.199 7.92235 127.839 7.69886C127.483 7.47538 127.063 7.36364 126.578 7.36364C126.044 7.36364 125.582 7.49621 125.192 7.76136C124.805 8.02273 124.508 8.36364 124.3 8.78409C124.091 9.20455 123.987 9.6553 123.987 10.1364V10.9091C123.987 11.5682 124.101 12.1269 124.328 12.5852C124.559 13.0398 124.879 13.3864 125.288 13.625C125.697 13.8598 126.173 13.9773 126.714 13.9773C127.067 13.9773 127.385 13.928 127.669 13.8295C127.957 13.7273 128.205 13.5758 128.413 13.375C128.622 13.1705 128.783 12.9167 128.896 12.6136L130.192 12.9773C130.055 13.4167 129.826 13.803 129.504 14.1364C129.182 14.4659 128.785 14.7235 128.311 14.9091C127.838 15.0909 127.305 15.1818 126.714 15.1818ZM133.709 3.36364V15H132.368V3.36364H133.709ZM141.665 11.4318V6.27273H143.006V15H141.665V13.5227H141.574C141.369 13.9659 141.051 14.3428 140.619 14.6534C140.188 14.9602 139.642 15.1136 138.983 15.1136C138.438 15.1136 137.953 14.9943 137.528 14.7557C137.104 14.5133 136.771 14.1496 136.528 13.6648C136.286 13.1761 136.165 12.5606 136.165 11.8182V6.27273H137.506V11.7273C137.506 12.3636 137.684 12.8712 138.04 13.25C138.4 13.6288 138.858 13.8182 139.415 13.8182C139.748 13.8182 140.087 13.733 140.432 13.5625C140.78 13.392 141.072 13.1307 141.307 12.7784C141.545 12.4261 141.665 11.9773 141.665 11.4318ZM145.462 15V6.27273H146.757V7.63636H146.871C147.053 7.17045 147.346 6.80871 147.751 6.55114C148.157 6.28977 148.643 6.15909 149.212 6.15909C149.787 6.15909 150.267 6.28977 150.649 6.55114C151.036 6.80871 151.337 7.17045 151.553 7.63636H151.643C151.867 7.18561 152.202 6.82765 152.649 6.5625C153.096 6.29356 153.632 6.15909 154.257 6.15909C155.037 6.15909 155.676 6.40341 156.172 6.89205C156.668 7.37689 156.916 8.13258 156.916 9.15909V15H155.575V9.15909C155.575 8.51515 155.399 8.05492 155.047 7.77841C154.695 7.50189 154.28 7.36364 153.803 7.36364C153.189 7.36364 152.714 7.54924 152.376 7.92045C152.039 8.28788 151.871 8.75379 151.871 9.31818V15H150.507V9.02273C150.507 8.52652 150.346 8.12689 150.024 7.82386C149.702 7.51705 149.287 7.36364 148.78 7.36364C148.431 7.36364 148.106 7.45644 147.803 7.64205C147.503 7.82765 147.261 8.08523 147.075 8.41477C146.893 8.74053 146.803 9.11742 146.803 9.54545V15H145.462ZM167.663 6.27273V7.40909H163.141V6.27273H167.663ZM164.459 4.18182H165.8V12.5C165.8 12.8788 165.855 13.1629 165.964 13.3523C166.078 13.5379 166.222 13.6629 166.396 13.7273C166.574 13.7879 166.762 13.8182 166.959 13.8182C167.107 13.8182 167.228 13.8106 167.322 13.7955C167.417 13.7765 167.493 13.7614 167.55 13.75L167.822 14.9545C167.732 14.9886 167.605 15.0227 167.442 15.0568C167.279 15.0947 167.072 15.1136 166.822 15.1136C166.444 15.1136 166.072 15.0322 165.709 14.8693C165.349 14.7064 165.05 14.4583 164.811 14.125C164.576 13.7917 164.459 13.3712 164.459 12.8636V4.18182ZM173.246 15.1818C172.405 15.1818 171.679 14.9962 171.07 14.625C170.464 14.25 169.996 13.7273 169.666 13.0568C169.34 12.3826 169.178 11.5985 169.178 10.7045C169.178 9.81061 169.34 9.02273 169.666 8.34091C169.996 7.6553 170.454 7.12121 171.041 6.73864C171.632 6.35227 172.321 6.15909 173.109 6.15909C173.564 6.15909 174.013 6.23485 174.456 6.38636C174.899 6.53788 175.303 6.78409 175.666 7.125C176.03 7.46212 176.32 7.90909 176.536 8.46591C176.751 9.02273 176.859 9.70833 176.859 10.5227V11.0909H170.132V9.93182H175.496C175.496 9.43939 175.397 9 175.2 8.61364C175.007 8.22727 174.731 7.92235 174.371 7.69886C174.015 7.47538 173.594 7.36364 173.109 7.36364C172.575 7.36364 172.113 7.49621 171.723 7.76136C171.337 8.02273 171.039 8.36364 170.831 8.78409C170.623 9.20455 170.518 9.6553 170.518 10.1364V10.9091C170.518 11.5682 170.632 12.1269 170.859 12.5852C171.09 13.0398 171.411 13.3864 171.82 13.625C172.229 13.8598 172.704 13.9773 173.246 13.9773C173.598 13.9773 173.916 13.928 174.2 13.8295C174.488 13.7273 174.736 13.5758 174.945 13.375C175.153 13.1705 175.314 12.9167 175.428 12.6136L176.723 12.9773C176.587 13.4167 176.357 13.803 176.036 14.1364C175.714 14.4659 175.316 14.7235 174.842 14.9091C174.369 15.0909 173.837 15.1818 173.246 15.1818ZM178.899 15V6.27273H180.195V7.59091H180.286C180.445 7.15909 180.732 6.80871 181.149 6.53977C181.566 6.27083 182.036 6.13636 182.558 6.13636C182.657 6.13636 182.78 6.13826 182.928 6.14205C183.075 6.14583 183.187 6.15152 183.263 6.15909V7.52273C183.217 7.51136 183.113 7.49432 182.95 7.47159C182.791 7.44508 182.623 7.43182 182.445 7.43182C182.02 7.43182 181.642 7.52083 181.308 7.69886C180.979 7.87311 180.717 8.11553 180.524 8.42614C180.335 8.73295 180.24 9.08333 180.24 9.47727V15H178.899ZM184.852 15V6.27273H186.193V15H184.852ZM185.534 4.81818C185.273 4.81818 185.047 4.72917 184.858 4.55114C184.672 4.37311 184.58 4.15909 184.58 3.90909C184.58 3.65909 184.672 3.44508 184.858 3.26705C185.047 3.08902 185.273 3 185.534 3C185.795 3 186.019 3.08902 186.205 3.26705C186.394 3.44508 186.489 3.65909 186.489 3.90909C186.489 4.15909 186.394 4.37311 186.205 4.55114C186.019 4.72917 185.795 4.81818 185.534 4.81818ZM194.831 8.22727L193.626 8.56818C193.551 8.36742 193.439 8.17235 193.291 7.98295C193.147 7.78977 192.95 7.63068 192.7 7.50568C192.45 7.38068 192.13 7.31818 191.74 7.31818C191.206 7.31818 190.761 7.44129 190.405 7.6875C190.053 7.92992 189.876 8.23864 189.876 8.61364C189.876 8.94697 189.998 9.21023 190.24 9.40341C190.482 9.59659 190.861 9.75758 191.376 9.88636L192.672 10.2045C193.452 10.3939 194.034 10.6837 194.416 11.0739C194.799 11.4602 194.99 11.9583 194.99 12.5682C194.99 13.0682 194.846 13.5152 194.558 13.9091C194.274 14.303 193.876 14.6136 193.365 14.8409C192.854 15.0682 192.259 15.1818 191.581 15.1818C190.691 15.1818 189.954 14.9886 189.371 14.6023C188.787 14.2159 188.418 13.6515 188.263 12.9091L189.536 12.5909C189.657 13.0606 189.886 13.4129 190.223 13.6477C190.564 13.8826 191.009 14 191.558 14C192.183 14 192.679 13.8674 193.047 13.6023C193.418 13.3333 193.604 13.0114 193.604 12.6364C193.604 12.3333 193.498 12.0795 193.286 11.875C193.073 11.6667 192.748 11.5114 192.308 11.4091L190.854 11.0682C190.054 10.8788 189.467 10.5852 189.092 10.1875C188.721 9.78598 188.536 9.28409 188.536 8.68182C188.536 8.18939 188.674 7.75379 188.95 7.375C189.231 6.99621 189.611 6.69886 190.092 6.48295C190.577 6.26705 191.126 6.15909 191.74 6.15909C192.604 6.15909 193.282 6.34848 193.774 6.72727C194.27 7.10606 194.623 7.60606 194.831 8.22727ZM197.009 15V6.27273H198.349V15H197.009ZM197.69 4.81818C197.429 4.81818 197.204 4.72917 197.014 4.55114C196.829 4.37311 196.736 4.15909 196.736 3.90909C196.736 3.65909 196.829 3.44508 197.014 3.26705C197.204 3.08902 197.429 3 197.69 3C197.952 3 198.175 3.08902 198.361 3.26705C198.55 3.44508 198.645 3.65909 198.645 3.90909C198.645 4.15909 198.55 4.37311 198.361 4.55114C198.175 4.72917 197.952 4.81818 197.69 4.81818Z" fill="black"/>
<path d="M119.116 38.2727C119.048 37.697 118.772 37.25 118.287 36.9318C117.802 36.6136 117.207 36.4545 116.503 36.4545C115.988 36.4545 115.537 36.5379 115.151 36.7045C114.768 36.8712 114.469 37.1004 114.253 37.392C114.041 37.6837 113.935 38.0152 113.935 38.3864C113.935 38.697 114.009 38.964 114.156 39.1875C114.308 39.4072 114.501 39.5909 114.736 39.7386C114.971 39.8826 115.217 40.0019 115.474 40.0966C115.732 40.1875 115.969 40.2614 116.185 40.3182L117.366 40.6364C117.67 40.7159 118.007 40.8258 118.378 40.9659C118.753 41.1061 119.111 41.2973 119.452 41.5398C119.796 41.7784 120.08 42.0852 120.304 42.4602C120.527 42.8352 120.639 43.2955 120.639 43.8409C120.639 44.4697 120.474 45.0379 120.145 45.5455C119.819 46.053 119.342 46.4564 118.713 46.7557C118.088 47.0549 117.329 47.2045 116.435 47.2045C115.601 47.2045 114.88 47.0701 114.27 46.8011C113.664 46.5322 113.187 46.1572 112.838 45.6761C112.493 45.1951 112.298 44.6364 112.253 44H113.707C113.745 44.4394 113.893 44.803 114.151 45.0909C114.412 45.375 114.741 45.5871 115.139 45.7273C115.541 45.8636 115.973 45.9318 116.435 45.9318C116.973 45.9318 117.455 45.8447 117.884 45.6705C118.312 45.4924 118.651 45.2462 118.901 44.9318C119.151 44.6136 119.276 44.2424 119.276 43.8182C119.276 43.4318 119.168 43.1174 118.952 42.875C118.736 42.6326 118.452 42.4356 118.099 42.2841C117.747 42.1326 117.366 42 116.957 41.8864L115.526 41.4773C114.616 41.2159 113.897 40.8428 113.366 40.358C112.836 39.8731 112.571 39.2386 112.571 38.4545C112.571 37.803 112.747 37.2348 113.099 36.75C113.455 36.2614 113.933 35.8826 114.531 35.6136C115.134 35.3409 115.806 35.2045 116.548 35.2045C117.298 35.2045 117.965 35.339 118.548 35.608C119.132 35.8731 119.594 36.2367 119.935 36.6989C120.279 37.161 120.461 37.6856 120.48 38.2727H119.116ZM126.433 47.1818C125.592 47.1818 124.867 46.9962 124.257 46.625C123.651 46.25 123.183 45.7273 122.854 45.0568C122.528 44.3826 122.365 43.5985 122.365 42.7045C122.365 41.8106 122.528 41.0227 122.854 40.3409C123.183 39.6553 123.642 39.1212 124.229 38.7386C124.82 38.3523 125.509 38.1591 126.297 38.1591C126.751 38.1591 127.2 38.2348 127.643 38.3864C128.087 38.5379 128.49 38.7841 128.854 39.125C129.217 39.4621 129.507 39.9091 129.723 40.4659C129.939 41.0227 130.047 41.7083 130.047 42.5227V43.0909H123.32V41.9318H128.683C128.683 41.4394 128.585 41 128.388 40.6136C128.195 40.2273 127.918 39.9223 127.558 39.6989C127.202 39.4754 126.782 39.3636 126.297 39.3636C125.763 39.3636 125.301 39.4962 124.911 39.7614C124.524 40.0227 124.227 40.3636 124.018 40.7841C123.81 41.2045 123.706 41.6553 123.706 42.1364V42.9091C123.706 43.5682 123.82 44.1269 124.047 44.5852C124.278 45.0398 124.598 45.3864 125.007 45.625C125.416 45.8598 125.892 45.9773 126.433 45.9773C126.786 45.9773 127.104 45.928 127.388 45.8295C127.676 45.7273 127.924 45.5758 128.132 45.375C128.34 45.1705 128.501 44.9167 128.615 44.6136L129.911 44.9773C129.774 45.4167 129.545 45.803 129.223 46.1364C128.901 46.4659 128.503 46.7235 128.03 46.9091C127.556 47.0909 127.024 47.1818 126.433 47.1818ZM135.382 47.1818C134.655 47.1818 134.013 46.9981 133.456 46.6307C132.899 46.2595 132.464 45.7367 132.149 45.0625C131.835 44.3845 131.678 43.5833 131.678 42.6591C131.678 41.7424 131.835 40.947 132.149 40.2727C132.464 39.5985 132.901 39.0777 133.462 38.7102C134.022 38.3428 134.67 38.1591 135.405 38.1591C135.973 38.1591 136.422 38.2538 136.751 38.4432C137.085 38.6288 137.339 38.8409 137.513 39.0795C137.691 39.3144 137.829 39.5076 137.928 39.6591H138.041V35.3636H139.382V47H138.087V45.6591H137.928C137.829 45.8182 137.689 46.0189 137.507 46.2614C137.325 46.5 137.066 46.714 136.729 46.9034C136.392 47.089 135.943 47.1818 135.382 47.1818ZM135.564 45.9773C136.102 45.9773 136.556 45.8371 136.928 45.5568C137.299 45.2727 137.581 44.8807 137.774 44.3807C137.967 43.8769 138.064 43.2955 138.064 42.6364C138.064 41.9848 137.969 41.4148 137.78 40.9261C137.59 40.4337 137.31 40.0511 136.939 39.7784C136.568 39.5019 136.109 39.3636 135.564 39.3636C134.996 39.3636 134.522 39.5095 134.143 39.8011C133.768 40.089 133.486 40.4811 133.297 40.9773C133.111 41.4697 133.018 42.0227 133.018 42.6364C133.018 43.2576 133.113 43.822 133.303 44.3295C133.496 44.8333 133.78 45.2348 134.155 45.5341C134.534 45.8295 135.003 45.9773 135.564 45.9773ZM144.592 47.2045C144.039 47.2045 143.537 47.1004 143.087 46.892C142.636 46.6799 142.278 46.375 142.013 45.9773C141.748 45.5758 141.615 45.0909 141.615 44.5227C141.615 44.0227 141.714 43.6174 141.911 43.3068C142.107 42.9924 142.371 42.7462 142.7 42.5682C143.03 42.3902 143.393 42.2576 143.791 42.1705C144.193 42.0795 144.596 42.0076 145.001 41.9545C145.532 41.8864 145.962 41.8352 146.291 41.8011C146.625 41.7633 146.867 41.7008 147.018 41.6136C147.174 41.5265 147.251 41.375 147.251 41.1591V41.1136C147.251 40.553 147.098 40.1174 146.791 39.8068C146.488 39.4962 146.028 39.3409 145.411 39.3409C144.77 39.3409 144.268 39.4811 143.905 39.7614C143.541 40.0417 143.286 40.3409 143.138 40.6591L141.865 40.2045C142.092 39.6742 142.395 39.2614 142.774 38.9659C143.157 38.6667 143.573 38.4583 144.024 38.3409C144.479 38.2197 144.926 38.1591 145.365 38.1591C145.645 38.1591 145.967 38.1932 146.331 38.2614C146.698 38.3258 147.053 38.4602 147.393 38.6648C147.738 38.8693 148.024 39.178 148.251 39.5909C148.479 40.0038 148.592 40.5568 148.592 41.25V47H147.251V45.8182H147.183C147.092 46.0076 146.941 46.2102 146.729 46.4261C146.517 46.642 146.234 46.8258 145.882 46.9773C145.53 47.1288 145.1 47.2045 144.592 47.2045ZM144.797 46C145.327 46 145.774 45.8958 146.138 45.6875C146.505 45.4792 146.782 45.2102 146.967 44.8807C147.157 44.5511 147.251 44.2045 147.251 43.8409V42.6136C147.195 42.6818 147.07 42.7443 146.876 42.8011C146.687 42.8542 146.467 42.9015 146.217 42.9432C145.971 42.9811 145.731 43.0152 145.496 43.0455C145.265 43.072 145.077 43.0947 144.933 43.1136C144.585 43.1591 144.259 43.233 143.956 43.3352C143.657 43.4337 143.414 43.5833 143.229 43.7841C143.047 43.9811 142.956 44.25 142.956 44.5909C142.956 45.0568 143.128 45.4091 143.473 45.6477C143.821 45.8826 144.263 46 144.797 46ZM152.381 41.75V47H151.04V38.2727H152.335V39.6364H152.449C152.653 39.1932 152.964 38.8371 153.381 38.5682C153.797 38.2955 154.335 38.1591 154.994 38.1591C155.585 38.1591 156.102 38.2803 156.545 38.5227C156.989 38.7614 157.333 39.125 157.58 39.6136C157.826 40.0985 157.949 40.7121 157.949 41.4545V47H156.608V41.5455C156.608 40.8598 156.43 40.3258 156.074 39.9432C155.718 39.5568 155.229 39.3636 154.608 39.3636C154.18 39.3636 153.797 39.4564 153.46 39.642C153.127 39.8277 152.864 40.0985 152.67 40.4545C152.477 40.8106 152.381 41.2424 152.381 41.75ZM163.922 50.4545C163.274 50.4545 162.717 50.3712 162.251 50.2045C161.786 50.0417 161.397 49.8258 161.087 49.5568C160.78 49.2917 160.536 49.0076 160.354 48.7045L161.422 47.9545C161.543 48.1136 161.696 48.2955 161.882 48.5C162.068 48.7083 162.321 48.8883 162.643 49.0398C162.969 49.1951 163.395 49.2727 163.922 49.2727C164.626 49.2727 165.208 49.1023 165.666 48.7614C166.125 48.4205 166.354 47.8864 166.354 47.1591V45.3864H166.24C166.142 45.5455 166.001 45.7424 165.82 45.9773C165.642 46.2083 165.384 46.4148 165.047 46.5966C164.714 46.7746 164.263 46.8636 163.695 46.8636C162.99 46.8636 162.357 46.697 161.797 46.3636C161.24 46.0303 160.799 45.5455 160.473 44.9091C160.151 44.2727 159.99 43.5 159.99 42.5909C159.99 41.697 160.147 40.9186 160.462 40.2557C160.776 39.589 161.214 39.0739 161.774 38.7102C162.335 38.3428 162.982 38.1591 163.717 38.1591C164.286 38.1591 164.736 38.2538 165.07 38.4432C165.407 38.6288 165.664 38.8409 165.842 39.0795C166.024 39.3144 166.164 39.5076 166.263 39.6591H166.399V38.2727H167.695V47.25C167.695 48 167.524 48.6098 167.183 49.0795C166.846 49.553 166.392 49.8996 165.82 50.1193C165.251 50.3428 164.619 50.4545 163.922 50.4545ZM163.876 45.6591C164.414 45.6591 164.869 45.536 165.24 45.2898C165.611 45.0436 165.893 44.6894 166.087 44.2273C166.28 43.7652 166.376 43.2121 166.376 42.5682C166.376 41.9394 166.282 41.3845 166.092 40.9034C165.903 40.4223 165.623 40.0455 165.251 39.7727C164.88 39.5 164.422 39.3636 163.876 39.3636C163.308 39.3636 162.835 39.5076 162.456 39.7955C162.081 40.0833 161.799 40.4697 161.609 40.9545C161.424 41.4394 161.331 41.9773 161.331 42.5682C161.331 43.1742 161.426 43.7102 161.615 44.1761C161.808 44.6383 162.092 45.0019 162.467 45.267C162.846 45.5284 163.316 45.6591 163.876 45.6591ZM177.945 47.1818C177.217 47.1818 176.575 46.9981 176.018 46.6307C175.462 46.2595 175.026 45.7367 174.712 45.0625C174.397 44.3845 174.24 43.5833 174.24 42.6591C174.24 41.7424 174.397 40.947 174.712 40.2727C175.026 39.5985 175.464 39.0777 176.024 38.7102C176.585 38.3428 177.232 38.1591 177.967 38.1591C178.536 38.1591 178.984 38.2538 179.314 38.4432C179.647 38.6288 179.901 38.8409 180.075 39.0795C180.253 39.3144 180.392 39.5076 180.49 39.6591H180.604V35.3636H181.945V47H180.649V45.6591H180.49C180.392 45.8182 180.251 46.0189 180.07 46.2614C179.888 46.5 179.628 46.714 179.291 46.9034C178.954 47.089 178.505 47.1818 177.945 47.1818ZM178.126 45.9773C178.664 45.9773 179.119 45.8371 179.49 45.5568C179.861 45.2727 180.143 44.8807 180.337 44.3807C180.53 43.8769 180.626 43.2955 180.626 42.6364C180.626 41.9848 180.532 41.4148 180.342 40.9261C180.153 40.4337 179.873 40.0511 179.501 39.7784C179.13 39.5019 178.672 39.3636 178.126 39.3636C177.558 39.3636 177.085 39.5095 176.706 39.8011C176.331 40.089 176.049 40.4811 175.859 40.9773C175.674 41.4697 175.581 42.0227 175.581 42.6364C175.581 43.2576 175.676 43.822 175.865 44.3295C176.058 44.8333 176.342 45.2348 176.717 45.5341C177.096 45.8295 177.566 45.9773 178.126 45.9773ZM184.587 47V38.2727H185.928V47H184.587ZM185.268 36.8182C185.007 36.8182 184.782 36.7292 184.592 36.5511C184.407 36.3731 184.314 36.1591 184.314 35.9091C184.314 35.6591 184.407 35.4451 184.592 35.267C184.782 35.089 185.007 35 185.268 35C185.53 35 185.753 35.089 185.939 35.267C186.128 35.4451 186.223 35.6591 186.223 35.9091C186.223 36.1591 186.128 36.3731 185.939 36.5511C185.753 36.7292 185.53 36.8182 185.268 36.8182ZM189.634 43.8182L189.611 42.1591H189.884L193.702 38.2727H195.361L191.293 42.3864H191.179L189.634 43.8182ZM188.384 47V35.3636H189.724V47H188.384ZM193.929 47L190.52 42.6818L191.474 41.75L195.634 47H193.929ZM200.386 47.1818C199.545 47.1818 198.82 46.9962 198.21 46.625C197.604 46.25 197.136 45.7273 196.807 45.0568C196.481 44.3826 196.318 43.5985 196.318 42.7045C196.318 41.8106 196.481 41.0227 196.807 40.3409C197.136 39.6553 197.595 39.1212 198.182 38.7386C198.773 38.3523 199.462 38.1591 200.25 38.1591C200.705 38.1591 201.153 38.2348 201.597 38.3864C202.04 38.5379 202.443 38.7841 202.807 39.125C203.17 39.4621 203.46 39.9091 203.676 40.4659C203.892 41.0227 204 41.7083 204 42.5227V43.0909H197.273V41.9318H202.636C202.636 41.4394 202.538 41 202.341 40.6136C202.148 40.2273 201.871 39.9223 201.511 39.6989C201.155 39.4754 200.735 39.3636 200.25 39.3636C199.716 39.3636 199.254 39.4962 198.864 39.7614C198.477 40.0227 198.18 40.3636 197.972 40.7841C197.763 41.2045 197.659 41.6553 197.659 42.1364V42.9091C197.659 43.5682 197.773 44.1269 198 44.5852C198.231 45.0398 198.551 45.3864 198.96 45.625C199.369 45.8598 199.845 45.9773 200.386 45.9773C200.739 45.9773 201.057 45.928 201.341 45.8295C201.629 45.7273 201.877 45.5758 202.085 45.375C202.294 45.1705 202.455 44.9167 202.568 44.6136L203.864 44.9773C203.727 45.4167 203.498 45.803 203.176 46.1364C202.854 46.4659 202.456 46.7235 201.983 46.9091C201.509 47.0909 200.977 47.1818 200.386 47.1818ZM206.04 47V38.2727H207.335V39.5909H207.426C207.585 39.1591 207.873 38.8087 208.29 38.5398C208.706 38.2708 209.176 38.1364 209.699 38.1364C209.797 38.1364 209.92 38.1383 210.068 38.142C210.216 38.1458 210.328 38.1515 210.403 38.1591V39.5227C210.358 39.5114 210.254 39.4943 210.091 39.4716C209.932 39.4451 209.763 39.4318 209.585 39.4318C209.161 39.4318 208.782 39.5208 208.449 39.6989C208.119 39.8731 207.858 40.1155 207.665 40.4261C207.475 40.733 207.381 41.0833 207.381 41.4773V47H206.04ZM211.993 38.2727H213.334V47.6364C213.334 48.1742 213.241 48.6402 213.055 49.0341C212.874 49.428 212.597 49.733 212.226 49.9489C211.858 50.1648 211.394 50.2727 210.834 50.2727C210.788 50.2727 210.743 50.2727 210.697 50.2727C210.652 50.2727 210.607 50.2727 210.561 50.2727V49.0227C210.607 49.0227 210.648 49.0227 210.686 49.0227C210.724 49.0227 210.766 49.0227 210.811 49.0227C211.22 49.0227 211.519 48.9015 211.709 48.6591C211.898 48.4205 211.993 48.0795 211.993 47.6364V38.2727ZM212.652 36.8182C212.391 36.8182 212.165 36.7292 211.976 36.5511C211.79 36.3731 211.697 36.1591 211.697 35.9091C211.697 35.6591 211.79 35.4451 211.976 35.267C212.165 35.089 212.391 35 212.652 35C212.913 35 213.137 35.089 213.322 35.267C213.512 35.4451 213.607 35.6591 213.607 35.9091C213.607 36.1591 213.512 36.3731 213.322 36.5511C213.137 36.7292 212.913 36.8182 212.652 36.8182ZM218.358 47.2045C217.805 47.2045 217.303 47.1004 216.852 46.892C216.402 46.6799 216.044 46.375 215.778 45.9773C215.513 45.5758 215.381 45.0909 215.381 44.5227C215.381 44.0227 215.479 43.6174 215.676 43.3068C215.873 42.9924 216.136 42.7462 216.466 42.5682C216.795 42.3902 217.159 42.2576 217.557 42.1705C217.958 42.0795 218.362 42.0076 218.767 41.9545C219.297 41.8864 219.727 41.8352 220.057 41.8011C220.39 41.7633 220.633 41.7008 220.784 41.6136C220.939 41.5265 221.017 41.375 221.017 41.1591V41.1136C221.017 40.553 220.864 40.1174 220.557 39.8068C220.254 39.4962 219.794 39.3409 219.176 39.3409C218.536 39.3409 218.034 39.4811 217.67 39.7614C217.307 40.0417 217.051 40.3409 216.903 40.6591L215.631 40.2045C215.858 39.6742 216.161 39.2614 216.54 38.9659C216.922 38.6667 217.339 38.4583 217.79 38.3409C218.244 38.2197 218.691 38.1591 219.131 38.1591C219.411 38.1591 219.733 38.1932 220.097 38.2614C220.464 38.3258 220.818 38.4602 221.159 38.6648C221.504 38.8693 221.79 39.178 222.017 39.5909C222.244 40.0038 222.358 40.5568 222.358 41.25V47H221.017V45.8182H220.949C220.858 46.0076 220.706 46.2102 220.494 46.4261C220.282 46.642 220 46.8258 219.648 46.9773C219.295 47.1288 218.866 47.2045 218.358 47.2045ZM218.562 46C219.093 46 219.54 45.8958 219.903 45.6875C220.271 45.4792 220.547 45.2102 220.733 44.8807C220.922 44.5511 221.017 44.2045 221.017 43.8409V42.6136C220.96 42.6818 220.835 42.7443 220.642 42.8011C220.453 42.8542 220.233 42.9015 219.983 42.9432C219.737 42.9811 219.496 43.0152 219.261 43.0455C219.03 43.072 218.843 43.0947 218.699 43.1136C218.35 43.1591 218.025 43.233 217.722 43.3352C217.422 43.4337 217.18 43.5833 216.994 43.7841C216.813 43.9811 216.722 44.25 216.722 44.5909C216.722 45.0568 216.894 45.4091 217.239 45.6477C217.587 45.8826 218.028 46 218.562 46ZM226.055 43.8182L226.033 42.1591H226.305L230.124 38.2727H231.783L227.714 42.3864H227.601L226.055 43.8182ZM224.805 47V35.3636H226.146V47H224.805ZM230.351 47L226.942 42.6818L227.896 41.75L232.055 47H230.351ZM236.077 47.2045C235.524 47.2045 235.022 47.1004 234.571 46.892C234.12 46.6799 233.762 46.375 233.497 45.9773C233.232 45.5758 233.099 45.0909 233.099 44.5227C233.099 44.0227 233.198 43.6174 233.395 43.3068C233.592 42.9924 233.855 42.7462 234.185 42.5682C234.514 42.3902 234.878 42.2576 235.276 42.1705C235.677 42.0795 236.08 42.0076 236.486 41.9545C237.016 41.8864 237.446 41.8352 237.776 41.8011C238.109 41.7633 238.351 41.7008 238.503 41.6136C238.658 41.5265 238.736 41.375 238.736 41.1591V41.1136C238.736 40.553 238.582 40.1174 238.276 39.8068C237.973 39.4962 237.512 39.3409 236.895 39.3409C236.255 39.3409 235.753 39.4811 235.389 39.7614C235.026 40.0417 234.77 40.3409 234.622 40.6591L233.349 40.2045C233.577 39.6742 233.88 39.2614 234.259 38.9659C234.641 38.6667 235.058 38.4583 235.509 38.3409C235.963 38.2197 236.41 38.1591 236.849 38.1591C237.13 38.1591 237.452 38.1932 237.815 38.2614C238.183 38.3258 238.537 38.4602 238.878 38.6648C239.223 38.8693 239.509 39.178 239.736 39.5909C239.963 40.0038 240.077 40.5568 240.077 41.25V47H238.736V45.8182H238.668C238.577 46.0076 238.425 46.2102 238.213 46.4261C238.001 46.642 237.719 46.8258 237.366 46.9773C237.014 47.1288 236.584 47.2045 236.077 47.2045ZM236.281 46C236.812 46 237.259 45.8958 237.622 45.6875C237.99 45.4792 238.266 45.2102 238.452 44.8807C238.641 44.5511 238.736 44.2045 238.736 43.8409V42.6136C238.679 42.6818 238.554 42.7443 238.361 42.8011C238.171 42.8542 237.952 42.9015 237.702 42.9432C237.455 42.9811 237.215 43.0152 236.98 43.0455C236.749 43.072 236.562 43.0947 236.418 43.1136C236.069 43.1591 235.743 43.233 235.44 43.3352C235.141 43.4337 234.899 43.5833 234.713 43.7841C234.531 43.9811 234.44 44.25 234.44 44.5909C234.44 45.0568 234.613 45.4091 234.957 45.6477C235.306 45.8826 235.747 46 236.281 46ZM243.865 41.75V47H242.524V38.2727H243.82V39.6364H243.933C244.138 39.1932 244.448 38.8371 244.865 38.5682C245.282 38.2955 245.82 38.1591 246.479 38.1591C247.07 38.1591 247.587 38.2803 248.03 38.5227C248.473 38.7614 248.818 39.125 249.064 39.6136C249.31 40.0985 249.433 40.7121 249.433 41.4545V47H248.092V41.5455C248.092 40.8598 247.914 40.3258 247.558 39.9432C247.202 39.5568 246.714 39.3636 246.092 39.3636C245.664 39.3636 245.282 39.4564 244.945 39.642C244.611 39.8277 244.348 40.0985 244.155 40.4545C243.962 40.8106 243.865 41.2424 243.865 41.75Z" fill="black"/>
</svg>
